<?xml version="1.0" standalone="no"?>
<!DOCTYPE svg PUBLIC "-//W3C//DTD SVG 20010904//EN"
 "http://www.w3.org/TR/2001/REC-SVG-20010904/DTD/svg10.dtd">
<svg version="1.0" xmlns="http://www.w3.org/2000/svg"
 width="100.000000pt" height="100.000000pt" viewBox="0 0 100.000000 100.000000"
 preserveAspectRatio="xMidYMid meet">
<metadata>
Created by potrace 1.14, written by Peter Selinger 2001-2017
</metadata>
<g transform="translate(0.000000,100.000000) scale(0.100000,-0.100000)"
fill="#000000" stroke="none">
<path d="M482 853 c2 -37 7 -49 21 -51 16 -3 18 3 15 45 -2 37 -7 49 -21 51
-16 3 -18 -3 -15 -45z"/>
<path d="M347 824 c-9 -9 25 -64 38 -64 22 0 24 13 9 41 -14 28 -33 37 -47 23z"/>
<path d="M606 805 c-17 -26 -14 -45 6 -45 15 0 37 31 38 53 0 25 -25 21 -44
-8z"/>
<path d="M217 746 c-7 -18 54 -59 78 -54 27 5 19 22 -21 45 -46 27 -50 27 -57
9z"/>
<path d="M717 734 c-61 -40 -24 -63 39 -23 21 12 31 25 27 35 -7 19 -22 17
-66 -12z"/>
<path d="M479 669 c-24 -23 -75 -71 -114 -108 -106 -101 -95 -97 -153 -51 -27
22 -53 40 -57 40 -14 0 -114 -85 -115 -97 -1 -26 22 -22 64 11 23 20 47 36 52
36 5 -1 24 -14 43 -30 l35 -30 -22 -23 c-19 -20 -20 -26 -9 -35 11 -9 19 -7
37 8 13 11 25 20 27 20 2 0 26 -18 54 -40 48 -38 69 -43 69 -17 0 7 -20 28
-45 47 -24 19 -44 38 -45 41 0 10 98 99 109 99 5 0 19 -12 30 -26 21 -27 48
-27 71 1 10 12 18 11 56 -7 l44 -22 23 22 23 22 22 -23 22 -22 -52 -48 c-42
-38 -50 -50 -38 -57 16 -10 19 -8 84 44 l36 28 45 -41 c41 -38 65 -45 65 -20
0 5 -16 26 -35 46 -19 21 -34 42 -32 47 2 5 21 24 44 43 l41 34 37 -36 c40
-37 50 -41 60 -25 3 6 -16 34 -43 62 l-50 52 -33 -26 c-19 -15 -48 -38 -65
-52 l-32 -26 -88 91 c-49 49 -96 94 -105 99 -11 6 -27 -2 -60 -31z m133 -121
c-9 -9 -20 -8 -47 5 -33 16 -38 16 -67 1 -28 -14 -32 -14 -46 0 -15 15 -12 20
28 61 l44 45 50 -50 c39 -39 48 -52 38 -62z"/>
<path d="M376 248 c-33 -4 -90 -17 -128 -29 -54 -17 -68 -26 -68 -42 0 -15 5
-18 23 -13 111 33 184 47 250 50 88 3 224 -15 281 -39 39 -17 66 -14 66 5 0 6
-16 18 -35 26 -97 40 -267 59 -389 42z"/>
<path d="M410 153 c-59 -9 -128 -34 -133 -47 -9 -22 16 -26 64 -10 66 23 195
25 264 3 43 -13 63 -15 72 -7 7 5 10 14 7 19 -15 26 -199 54 -274 42z"/>
</g>
</svg>
